<mxfile host="65bd71144e">
    <diagram id="lJj_iWQH5n7zuyJ7kVu4" name="Page-1">
        <mxGraphModel dx="1173" dy="815" grid="1" gridSize="10" guides="1" tooltips="1" connect="1" arrows="1" fold="1" page="1" pageScale="1" pageWidth="850" pageHeight="1100" math="0" shadow="0">
            <root>
                <mxCell id="0"/>
                <mxCell id="1" parent="0"/>
                <mxCell id="2" value="no user" style="ellipse;whiteSpace=wrap;html=1;" vertex="1" parent="1">
                    <mxGeometry x="70" y="390" width="120" height="80" as="geometry"/>
                </mxCell>
                <mxCell id="4" value="home" style="rounded=0;whiteSpace=wrap;html=1;" vertex="1" parent="1">
                    <mxGeometry x="70" y="520" width="120" height="60" as="geometry"/>
                </mxCell>
                <mxCell id="5" value="home&lt;br&gt;edited logout" style="rounded=0;whiteSpace=wrap;html=1;" vertex="1" parent="1">
                    <mxGeometry x="340" y="520" width="120" height="60" as="geometry"/>
                </mxCell>
                <mxCell id="6" value="services" style="rounded=0;whiteSpace=wrap;html=1;" vertex="1" parent="1">
                    <mxGeometry x="70" y="630" width="120" height="60" as="geometry"/>
                </mxCell>
                <mxCell id="7" value="contact us&lt;br&gt;email, fq&amp;amp;a" style="rounded=0;whiteSpace=wrap;html=1;" vertex="1" parent="1">
                    <mxGeometry x="70" y="740" width="120" height="60" as="geometry"/>
                </mxCell>
                <mxCell id="8" value="login" style="rounded=0;whiteSpace=wrap;html=1;" vertex="1" parent="1">
                    <mxGeometry x="70" y="850" width="120" height="60" as="geometry"/>
                </mxCell>
                <mxCell id="9" value="signup" style="rounded=0;whiteSpace=wrap;html=1;" vertex="1" parent="1">
                    <mxGeometry x="70" y="960" width="120" height="60" as="geometry"/>
                </mxCell>
                <mxCell id="10" value="patients" style="ellipse;whiteSpace=wrap;html=1;" vertex="1" parent="1">
                    <mxGeometry x="340" y="390" width="120" height="80" as="geometry"/>
                </mxCell>
                <mxCell id="11" value="home&lt;br&gt;edited logout" style="rounded=0;whiteSpace=wrap;html=1;" vertex="1" parent="1">
                    <mxGeometry x="610" y="520" width="120" height="60" as="geometry"/>
                </mxCell>
                <mxCell id="12" value="admin" style="ellipse;whiteSpace=wrap;html=1;" vertex="1" parent="1">
                    <mxGeometry x="610" y="390" width="120" height="80" as="geometry"/>
                </mxCell>
                <mxCell id="13" value="appointment" style="rounded=0;whiteSpace=wrap;html=1;" vertex="1" parent="1">
                    <mxGeometry x="610" y="630" width="120" height="60" as="geometry"/>
                </mxCell>
                <mxCell id="14" value="dashboard/profile" style="rounded=0;whiteSpace=wrap;html=1;" vertex="1" parent="1">
                    <mxGeometry x="610" y="740" width="120" height="60" as="geometry"/>
                </mxCell>
                <mxCell id="15" value="message" style="rounded=0;whiteSpace=wrap;html=1;" vertex="1" parent="1">
                    <mxGeometry x="340" y="740" width="120" height="60" as="geometry"/>
                </mxCell>
                <mxCell id="16" value="profile" style="rounded=0;whiteSpace=wrap;html=1;" vertex="1" parent="1">
                    <mxGeometry x="340" y="850" width="120" height="60" as="geometry"/>
                </mxCell>
                <mxCell id="17" value="message" style="rounded=0;whiteSpace=wrap;html=1;" vertex="1" parent="1">
                    <mxGeometry x="610" y="850" width="120" height="60" as="geometry"/>
                </mxCell>
                <mxCell id="18" value="profile" style="rounded=0;whiteSpace=wrap;html=1;" vertex="1" parent="1">
                    <mxGeometry x="610" y="960" width="120" height="60" as="geometry"/>
                </mxCell>
                <mxCell id="19" value="appointment" style="rounded=0;whiteSpace=wrap;html=1;" vertex="1" parent="1">
                    <mxGeometry x="340" y="630" width="120" height="60" as="geometry"/>
                </mxCell>
            </root>
        </mxGraphModel>
    </diagram>
</mxfile>